<svg id="图层_1" data-name="图层 1" xmlns="http://www.w3.org/2000/svg" viewBox="0 0 585.51 199.49"><rect x="580.83" width="4.68" height="198.33"/><path d="M286.8,74.81,264.49,95.94l25.41,28.17h-7.59L260.56,99.59l-7.67,7.25v17.27h-5.66V74.81h5.66v25.61l26.52-25.61Z"/><path d="M300.81,74.81l27.9,40.11h.2V74.81h5.66v49.3h-5.79l-28-40.53h-.2v40.53h-5.67V74.81Z"/><path d="M350.46,74.81l27.89,40.11h.21V74.81h5.66v49.3h-5.8l-28-40.53h-.21v40.53h-5.66V74.81Z"/><path d="M421.85,77.43a12.23,12.23,0,0,1,4.28,9.81c0,5.52-2.69,9.25-8.08,11a13,13,0,0,1,6.63,4.22,10.7,10.7,0,0,1,2.49,7.24,14.19,14.19,0,0,1-4.7,11q-4.77,4.35-12.43,4.35a17.9,17.9,0,0,1-11.46-3.59c-3.52-2.9-5.45-7.11-5.87-12.63h5.73c.14,3.86,1.45,6.83,3.87,8.83a13.17,13.17,0,0,0,16.22-.48,9.86,9.86,0,0,0,3-7.25,8.53,8.53,0,0,0-2.9-6.9c-1.93-1.66-4.55-2.42-8-2.42h-4V96.21h3.8c3.31,0,5.8-.76,7.52-2.21a8.12,8.12,0,0,0,2.63-6.42A8.31,8.31,0,0,0,418,81.16c-1.79-1.66-4.35-2.42-7.52-2.42s-5.87.83-7.74,2.63A11.69,11.69,0,0,0,399.34,89h-5.59A16.21,16.21,0,0,1,399,77.85c2.91-2.7,6.7-4,11.4-4S419,75,421.85,77.43Z"/><path d="M253.17,149.22l27.89,40.12h.21V149.22h5.66v49.3h-5.8L253.1,158h-.21v40.53h-5.66v-49.3Z"/><path d="M323.87,167.66c2.63,3.45,4,8.35,4.15,14.56H299.85c.27,4,1.31,7.12,3.24,9.33a10.15,10.15,0,0,0,8,3.31,11.06,11.06,0,0,0,7.11-2.21,12.49,12.49,0,0,0,3.59-5.59h5.53a16.12,16.12,0,0,1-4.84,8.42,16.62,16.62,0,0,1-11.39,4,16,16,0,0,1-12.29-5c-3.18-3.46-4.7-8-4.7-13.81,0-5.25,1.45-9.67,4.49-13.19a15,15,0,0,1,12.29-5.59C316.62,161.86,321,163.79,323.87,167.66Zm-20.5,1.93a13.74,13.74,0,0,0-3.39,8.35h22.31c-.7-7.66-4.49-11.46-11.26-11.46A10,10,0,0,0,303.37,169.59Z"/><path d="M344,162.82h8.84v4.63H344v22.72a4,4,0,0,0,.76,2.83,3.45,3.45,0,0,0,2.63.89H352v4.63h-5.39c-2.9,0-5-.76-6.28-2.28s-1.73-3.38-1.73-6.07V167.45H331.4v-4.63h7.18v-9.25l5.45-2.28Z"/><path d="M361.16,162.82l8.77,28.93,8.28-28.93h5.18l8.29,28.93,8.77-28.93h6.07l-12.15,35.7h-5.25l-8.28-28.72-8.43,28.72h-5.18l-12.15-35.7Z"/><path d="M439.87,167.38c3,3.52,4.56,7.94,4.56,13.33a19.55,19.55,0,0,1-4.49,13.18,16.21,16.21,0,0,1-12.84,5.6c-5.39,0-9.6-1.87-12.78-5.6-3-3.45-4.55-7.87-4.55-13.18s1.52-9.81,4.55-13.33c3.18-3.73,7.39-5.52,12.78-5.52S436.69,163.65,439.87,167.38Zm-21.61,3.45a18.52,18.52,0,0,0,0,19.68,10.24,10.24,0,0,0,8.84,4.35,10.61,10.61,0,0,0,8.9-4.35,18.52,18.52,0,0,0,0-19.68,10.61,10.61,0,0,0-8.9-4.35A10.24,10.24,0,0,0,418.26,170.83Z"/><path d="M472.18,162.68v5.53a18,18,0,0,0-5.31-.76,8.36,8.36,0,0,0-7,3.66,12.85,12.85,0,0,0-2.84,8.49v18.92h-5.45v-35.7h5.45V169a13.06,13.06,0,0,1,3.73-4.91,10,10,0,0,1,6.49-2.27A12.77,12.77,0,0,1,472.18,162.68Z"/><path d="M482.33,148.25v31.14l17.89-16.57h7.31l-15.74,14.36,17.26,21.34h-7.11L488,180.77l-5.67,5.11v12.64h-5.52V148.25Z"/><path d="M123.47,39.81S122.37,50,107.5,50H88.93C74.06,50,74.09,39.81,74.09,39.81V.48H0V198.33H74.09V159.07s0-10.18,14.84-10.18h18.38c14.78,0,16,10,16,10.17v39.27h74.26v-49.4h-59c-14.78,0-14.85-10-14.85-10.17l-.36-14.65H88.93c-14.87,0-14.84-10.17-14.84-10.17V84.87s0-10.17,14.84-10.17h34.54V60.16S123.44,50,138.31,50h59.23V.48H123.47Z"/></svg>